# xmcd
#
# Track frame offsets:
#	150
#	15221
#	29853
#	46296
#	62323
#	81495
#	100048
#	120384
#	140838
#	160928
#	174582
#	191531
#	205003
#
# Disc length: 3005 seconds
#
# Revision: 0
# Processed by: cddbd v1.5PL3 Copyright (c) Steve Scherf et al.
# Submitted via: EasyCDDAExtractor 5.0.5.1
#
DISCID=a70bbb0d
DTITLE=Luis Rocha - Acústico
DYEAR=2002
DGENRE=country
TTITLE0=Arrastão
TTITLE1=Geração
TTITLE2=Bom Caminhoneiro
TTITLE3=Avaliação
TTITLE4=A vida é um Sonho
TTITLE5=Ao Som Da Viola
TTITLE6=Haja Coração
TTITLE7=O Amor Não Faz A Guerra
TTITLE8=Procurava Nas Cancões
TTITLE9=Soldados
TTITLE10=Sonhos
TTITLE11=Mundo Melhor
TTITLE12=O Homen Do Campo
EXTD=
EXTT0=
EXTT1=
EXTT2=
EXTT3=
EXTT4=
EXTT5=
EXTT6=
EXTT7=
EXTT8=
EXTT9=
EXTT10=
EXTT11=
EXTT12=
PLAYORDER=
